# xmcd CD database file
# Copyright (C) 1995-1998 Ti Kan
#
# Track frame offsets:
#	150
#	17017
#	30087
#	40297
#	51567
#	61967
#	77032
#	87622
#	100780
#	111620
#	127257
#	135650
#	154805
#	165592
#	180160
#	192945
#	205805
#	219562
#	237547
#	248382
#
# Disc length: 3468 seconds
#
# Revision: 1
# Processed by: cddbd v1.4PL0 Copyright (c) Steve Scherf et al.
# Submitted via: CDex 1.30Release
#
DISCID=140d8a14
DTITLE=Tom T Hall - Nashville storyteller
DYEAR=1997
DGENRE=Country
TTITLE0=Mr. Bojangles
TTITLE1=Son of Clayton Delaney
TTITLE2=The last country song
TTITLE3=You show me your heart
TTITLE4=Jesus on the road
TTITLE5=Soldier of fortune
TTITLE6=People as crazy as me
TTITLE7=The six o'clock news
TTITLE8=The year that Clayton Delaney died
TTITLE9=I like beer
TTITLE10=I love
TTITLE11=Old dogs, children and watermelon wine
TTITLE12=Great East Broadway Onion Championship of 1978
TTITLE13=What have I got to lose?
TTITLE14=I couldn't live in Southern California
TTITLE15=I left you some kisses on the door
TTITLE16=The old side of town
TTITLE17=Back when gas was thirty cents a gallon
TTITLE18=The world according to Raymond
TTITLE19=I'll go somewhere and sing my songs again
EXTD=YEAR: 1997 ID3G:   2
EXTT0=
EXTT1=
EXTT2=
EXTT3=
EXTT4=
EXTT5=
EXTT6=
EXTT7=
EXTT8=
EXTT9=
EXTT10=
EXTT11=
EXTT12=
EXTT13=
EXTT14=
EXTT15=
EXTT16=
EXTT17=
EXTT18=
EXTT19=
PLAYORDER=
